<svg width="728" height="107" viewBox="0 0 728 107" fill="none" xmlns="http://www.w3.org/2000/svg">
<g clip-path="url(#clip0_252_30)">
<path d="M31.9 106.5H5.5L0 86.2H5.6V60.6L0 40.2H5.6V20.4L0 0H26.6C43.3 0 56.9 13.6 56.8 30.4C56.8 36.9 54.7 43.2 50.8 48.5C64.6 60.5 66 81.5 53.9 95.3C48.3 101.8 40.4 105.8 31.9 106.5ZM26 40.2H26.6C32 40.2 36.4 35.7 36.4 30.3C36.4 24.9 32.1 20.5 26.7 20.5H26.6H26V40.2ZM41.7 73.4C41.7 66.4 36 60.7 29 60.7H26V86.3H29C36.1 86.2 41.8 80.4 41.7 73.4Z" fill="#1D1D1B"/>
<path d="M130.1 106.4L109.8 106.5L109.5 63.7C109.5 62 108 60.6 106.3 60.6H95.1002V106.5H74.8002V60.6L69.2002 40.2H74.8002V20.2L69.2002 0H101.5C119 1.4 131.3 13.7 131.3 30.4C131.4 37.2 129.1 43.9 124.7 49.2C127.9 53.3 129.7 58.4 129.7 63.6L130.1 106.4ZM110.9 30.4C110.9 20.7 100.3 20.2 98.2002 20.2H95.3002V40.2H98.2002C101.1 40.2 110.9 39.5 110.9 30.4Z" fill="#1D1D1B"/>
<path d="M203.3 23.7V82.8C203.3 95.9 192.6 106.5 179.5 106.5H164.8C151.7 106.5 141.2 95.9 141.1 82.8V23.7C141.1 10.6 151.7 0.1 164.8 0H179.5C192.6 0 203.2 10.6 203.3 23.7ZM182.8 23.7C182.8 21.9 181.3 20.4 179.4 20.3H164.7C162.9 20.3 161.4 21.8 161.3 23.7V82.8C161.3 84.6 162.8 86.1 164.7 86.2H179.4C181.2 86.2 182.7 84.7 182.8 82.8V23.7Z" fill="#1D1D1B"/>
<path d="M272.7 106.4L252.3 106.5L252 63.7C252 62 250.6 60.6 248.9 60.6H236.3V106.5H216V20.4L210.3 0H236.3V25.8L250.6 0H273.8L251.4 40.3C263.3 41.6 272.3 51.6 272.4 63.5L272.7 106.4Z" fill="#1D1D1B"/>
<path d="M343 10.2V20.4L322.5 28.8V20.4H306.8V40.1H330V60.5H306.8V86H322.5V77.6L342.9 86V106.3H286.5L280.7 86H286.5V20.4L280.8 0H343V10.2Z" fill="#1D1D1B"/>
<path d="M412.1 0V106.5H391.7V76L376 44V106.6H355.7V20.4L350 0H377.2L391.8 29.7V0H412.1Z" fill="#1D1D1B"/>
<path d="M479.1 106.5H452.6L447.1 86.2H452.7V60.6L447.1 40.2H452.7V20.4L447.1 0H473.7C490.5 0 504 13.6 504 30.3C504 36.8 501.9 43.2 498 48.4C511.8 60.5 513.2 81.5 501.1 95.3C495.5 101.8 487.6 105.8 479.1 106.5ZM473.2 40.2H473.8C479.2 40.2 483.6 35.7 483.6 30.3C483.6 24.9 479.3 20.5 473.9 20.5H473.8H473.2V40.2ZM488.9 73.4C488.9 66.4 483.2 60.7 476.2 60.7H473.3V86.3H476.2C483.2 86.2 488.9 80.4 488.9 73.4Z" fill="#1D1D1B"/>
<path d="M537.3 106.5H516.3V106.4L537.7 20.4L532.7 0H568.7L589.1 106.5H568.4L564.3 85.2H542.6L537.3 106.5ZM547.7 65H560.4L554.8 36.2L547.7 65Z" fill="#1D1D1B"/>
<path d="M658.4 0V20.2L638 29V20.3H631.1V106.5H610.8V20.3H603.8V29L583.5 20.2V0H658.4Z" fill="#1D1D1B"/>
<path d="M690.5 0H724.7V20.2L704.3 28.7V20.2H693C689.9 20.2 685.7 25.7 685.7 28.7C685.7 32.5 686.4 35.3 687.7 36.8C689.7 39.6 694.7 40.2 698.6 40.2H700.4C719.3 40.2 728 54.5 728 67.8V77.9C728 93.7 713 106.5 694.7 106.5H667.9V86.1L688.2 77.8V86.1H694.6C702.2 86.1 707.5 81.8 707.5 77.8V67.8C707.5 60.7 702.9 60.7 700.4 60.7H697.2V60.6C677 60.2 665.4 48.7 665.4 28.8C665.4 16.1 676.2 1.4 690.5 0Z" fill="#1D1D1B"/>
</g>
<defs>
<clipPath id="clip0_252_30">
<rect width="728" height="106.5" fill="white"/>
</clipPath>
</defs>
</svg>
